<?xml version="1.0" standalone="no"?><!DOCTYPE svg PUBLIC "-//W3C//DTD SVG 1.1//EN" "http://www.w3.org/Graphics/SVG/1.1/DTD/svg11.dtd"><svg t="1727509948760" class="icon" viewBox="0 0 1024 1024" version="1.1" xmlns="http://www.w3.org/2000/svg" p-id="11381" xmlns:xlink="http://www.w3.org/1999/xlink" width="200" height="200"><path d="M380.962 938.249a32.423 32.423 0 0 1-30.515 21.454H174.735c-17.041 0.208-31.024-13.437-31.232-30.477a30.85 30.85 0 0 1 5.474-17.926l80.212-124.551a32.42 32.42 0 0 1 27.257-14.871h138.238c17.907-0.002 32.425 14.514 32.427 32.422 0 3.74-0.647 7.453-1.912 10.973l-44.237 122.976zM643.038 938.249a32.423 32.423 0 0 0 30.515 21.454h175.712c17.041 0.209 31.024-13.436 31.232-30.477a30.86 30.86 0 0 0-5.473-17.927l-80.212-124.551a32.41 32.41 0 0 0-27.258-14.871H629.352c-17.907-0.002-32.425 14.514-32.427 32.422 0 3.74 0.647 7.453 1.912 10.973l44.201 122.977z" fill="#FEAFB6" p-id="11382"></path><path d="M617.156 607.307c0 26.19-59.367 41.505-118.001 41.505s-129.841-3.483-129.841-29.673 71.172-65.17 129.841-65.17 118.001 27.155 118.001 53.338z" fill="#FDA9A2" p-id="11383"></path><path d="M384.055 396.208a28.072 31.63 0 1 0 56.144 0 28.072 31.63 0 1 0-56.144 0Z" fill="#FEB0B6" p-id="11384"></path><path d="M558.104 396.208a28.072 31.63 0 1 0 56.144 0 28.072 31.63 0 1 0-56.144 0Z" fill="#FEB0B6" p-id="11385"></path><path d="M499.148 277.173c81.102 0.267 87.028 52.332 87.028 116.879s-38.967 116.886-87.028 116.886-87.028-52.332-87.028-116.886 5.926-117.146 87.028-116.879z" fill="#FEB0B6" p-id="11386"></path><path d="M304.774 854.164h-80.41l-0.206-5.194h64.02c-25.8-15.425-50.272-28.12-72.479-43.983-15.665-11.203-19.709-25.068-5.995-44.838 39.829-57.417 81.492-112.581 140.537-151.883 10.409-6.926 42.066-25.259 53.427-30.569 20.045-9.375 15.398-3.032 36.428 17.218 37.276 35.887 110.686 18.744 140.592-24.602a317.015 317.015 0 0 1 156.77 97.177c27.189 30.96 49.881 65.827 75.353 98.34 10.587 13.529 8.021 26.149-3.271 34.792-22.228 17.02-46.296 31.644-69.988 47.514h57.396l-0.206 5.475h-93.338c0-39.692 0.137-79.322-0.034-118.953-0.15-34.327-5.762-39.877-39.843-39.904-107.912-0.059-215.821-0.059-323.729 0-27.901 0-34.539 5.933-34.86 33.321-0.506 41.319-0.164 82.647-0.164 126.089z" fill="#4346E9" p-id="11387"></path><path d="M480.718 208.472c10.094-17.629 15.336-19.203 38.631-5.803a143.827 143.827 0 0 1 23.268 16.705c15.74 13.872 23.521 34.539 47.542 42.306 10.073 3.258 18.621 28.599 18.067 43.538-1.013 27.312-9.321 54.35-14.577 81.512l-7.384 0.315a102.171 102.171 0 0 1-7.528-25.964c-0.493-29.297-25.279-45.167-36.476-68.496-1.464-3.032-10.553-4.702-15.227-3.518-32.767 8.369-65.478 17.109-97.704 27.305-4.4 1.369-7.425 11.47-8.582 17.978-3.305 18.539-5.317 37.304-7.911 56.493-31.227-19.251-29.536-46.316-25.396-74.518a21.084 21.084 0 0 0-4.647-13.358c-22.583-31.439-14.823-67.579 21.564-81.245 22.708-8.515 48.473-8.741 76.36-13.25z" fill="#0C0A77" p-id="11388"></path><path d="M521.136 347.886a40.56 40.56 0 0 1 35.586 4.879c3.901 2.416 3.422 9.191-1.109 9.95a64.978 64.978 0 0 1-35.271-4.79 5.516 5.516 0 0 1 0.794-10.039zM433.54 351.643a46.014 46.014 0 0 1 36.551-2.997 5.236 5.236 0 0 1 0.644 9.471 59.464 59.464 0 0 1-36.126 3.162 5.262 5.262 0 0 1-1.069-9.636z" p-id="11389"></path><path d="M458.498 492.584h81.307v92.619h-81.307z" fill="#FEB0B6" p-id="11390"></path><path d="M540.735 496.163c-7.61 23.008-17.553 37.057-37.906 38.734-18.477 1.519-35.285-12.318-44.339-36.914 27.19 15.768 53.359 15.029 82.245-1.82z" opacity=".49" p-id="11391"></path><path d="M334.974 675.167h362.757c17.386 0 31.48 14.094 31.48 31.48v219.674c0 17.386-14.094 31.48-31.48 31.48H334.974c-17.386 0-31.48-14.094-31.48-31.48V706.647c0-17.386 14.094-31.48 31.48-31.48z" fill="#0D036A" p-id="11392"></path><path d="M516.168 812.015m-23.945 0a23.945 23.945 0 1 0 47.89 0 23.945 23.945 0 1 0-47.89 0Z" fill="#6D4BFF" p-id="11393"></path><path d="M729.218 64.294c15.33 0 27.757 12.427 27.757 27.757s-12.427 27.757-27.757 27.757c-15.33 0-27.757-12.427-27.757-27.757s12.427-27.757 27.757-27.757z" fill="#FFA800" opacity=".6" p-id="11394"></path><path d="M187.265 376.41m-17.752 0a17.752 17.752 0 1 0 35.504 0 17.752 17.752 0 1 0-35.504 0Z" fill="#2F85FE" opacity=".5" p-id="11395"></path><path d="M831.376 466.326m-11.832 0a11.832 11.832 0 1 0 23.664 0 11.832 11.832 0 1 0-23.664 0Z" fill="#6D4BFF" opacity=".3" p-id="11396"></path><path d="M536.52 388.543m-8.876 0a8.876 8.876 0 1 0 17.752 0 8.876 8.876 0 1 0-17.752 0Z" p-id="11397"></path><path d="M452.127 388.543m-8.876 0a8.876 8.876 0 1 0 17.752 0 8.876 8.876 0 1 0-17.752 0Z" p-id="11398"></path><path d="M490.258 393.778a56.215 56.215 0 0 0-3.182 12.797 44.302 44.302 0 0 0-0.13 12.565c0.627 7.078 6.872 12.308 13.95 11.681 0.251-0.022 0.501-0.052 0.75-0.089a2.224 2.224 0 0 0-1.178-4.285 6.789 6.789 0 0 1-6.611-2.47 12.924 12.924 0 0 1-2.84-8.445 53.824 53.824 0 0 1 3.517-20.578c0.994-2.681-3.29-3.838-4.276-1.176zM474.683 457.08a47.37 47.37 0 0 0 13.222 4.92c4.665 0.799 9.419 0.947 14.125 0.438 4.263-0.465 15.056-2.053 14.227-8.5-0.342-2.799-4.79-2.833-4.435 0 0.069 0.575 0.069 0.636-0.486 1.115a8.595 8.595 0 0 1-2.518 1.369 30.456 30.456 0 0 1-9.314 1.752 38.222 38.222 0 0 1-22.583-4.962c-2.546-1.286-4.79 2.539-2.245 3.832l0.007 0.036z" p-id="11399"></path></svg>